<mxfile host="app.diagrams.net" agent="Mozilla/5.0 (Windows NT 10.0; Win64; x64) AppleWebKit/537.36 (KHTML, like Gecko) Chrome/129.0.0.0 Safari/537.36" version="24.7.17" pages="2">
  <diagram name="Page-1" id="DCNtxTeog5cygdIcJVZW">
    <mxGraphModel dx="1222" dy="628" grid="1" gridSize="10" guides="1" tooltips="1" connect="1" arrows="1" fold="1" page="1" pageScale="1" pageWidth="850" pageHeight="1100" math="0" shadow="0">
      <root>
        <mxCell id="0" />
        <mxCell id="1" parent="0" />
        <mxCell id="I_56bxetgjxXbQlA3_zJ-5" value="" style="swimlane;startSize=0;fillColor=#0050ef;fontColor=#ffffff;strokeColor=#001DBC;" parent="1" vertex="1">
          <mxGeometry x="280" y="10" width="340" height="750" as="geometry" />
        </mxCell>
        <mxCell id="I_56bxetgjxXbQlA3_zJ-7" value="Register&lt;span class=&quot;hljs-operator&quot;&gt;/&lt;/span&gt;Login" style="ellipse;whiteSpace=wrap;html=1;fillColor=#f8cecc;strokeColor=#b85450;" parent="I_56bxetgjxXbQlA3_zJ-5" vertex="1">
          <mxGeometry x="77.5" y="20" width="135" height="50" as="geometry" />
        </mxCell>
        <mxCell id="I_56bxetgjxXbQlA3_zJ-8" value="Track Workouts" style="ellipse;whiteSpace=wrap;html=1;fillColor=#f8cecc;strokeColor=#b85450;" parent="I_56bxetgjxXbQlA3_zJ-5" vertex="1">
          <mxGeometry x="80" y="90" width="130" height="50" as="geometry" />
        </mxCell>
        <mxCell id="I_56bxetgjxXbQlA3_zJ-9" value=" Set goals" style="ellipse;whiteSpace=wrap;html=1;fillColor=#f8cecc;strokeColor=#b85450;" parent="I_56bxetgjxXbQlA3_zJ-5" vertex="1">
          <mxGeometry x="80" y="164" width="130" height="50" as="geometry" />
        </mxCell>
        <mxCell id="I_56bxetgjxXbQlA3_zJ-10" value="&lt;span class=&quot;hljs-keyword&quot;&gt;View&lt;/span&gt; Progress" style="ellipse;whiteSpace=wrap;html=1;fillColor=#f8cecc;strokeColor=#b85450;" parent="I_56bxetgjxXbQlA3_zJ-5" vertex="1">
          <mxGeometry x="80" y="230" width="130" height="50" as="geometry" />
        </mxCell>
        <mxCell id="I_56bxetgjxXbQlA3_zJ-11" value="&lt;span class=&quot;hljs-keyword&quot;&gt;Create&lt;/span&gt;&lt;span class=&quot;hljs-operator&quot;&gt;/&lt;/span&gt;Follow Workout Plans" style="ellipse;whiteSpace=wrap;html=1;fillColor=#f8cecc;strokeColor=#b85450;" parent="I_56bxetgjxXbQlA3_zJ-5" vertex="1">
          <mxGeometry x="78" y="370" width="135" height="50" as="geometry" />
        </mxCell>
        <mxCell id="I_56bxetgjxXbQlA3_zJ-12" value="Receive Notifications" style="ellipse;whiteSpace=wrap;html=1;fillColor=#f8cecc;strokeColor=#b85450;" parent="I_56bxetgjxXbQlA3_zJ-5" vertex="1">
          <mxGeometry x="80" y="440" width="130" height="55" as="geometry" />
        </mxCell>
        <mxCell id="I_56bxetgjxXbQlA3_zJ-13" value="Diet&lt;span class=&quot;hljs-operator&quot;&gt;/&lt;/span&gt;Meal Plans" style="ellipse;whiteSpace=wrap;html=1;fillColor=#f8cecc;strokeColor=#b85450;" parent="I_56bxetgjxXbQlA3_zJ-5" vertex="1">
          <mxGeometry x="80.5" y="520" width="130" height="55" as="geometry" />
        </mxCell>
        <mxCell id="I_56bxetgjxXbQlA3_zJ-14" value="Access Personal Trainer" style="ellipse;whiteSpace=wrap;html=1;fillColor=#f8cecc;strokeColor=#b85450;" parent="I_56bxetgjxXbQlA3_zJ-5" vertex="1">
          <mxGeometry x="80" y="610" width="130" height="45" as="geometry" />
        </mxCell>
        <mxCell id="I_56bxetgjxXbQlA3_zJ-15" value="Feedback &lt;span class=&quot;hljs-keyword&quot;&gt;and&lt;/span&gt; Reports" style="ellipse;whiteSpace=wrap;html=1;fillColor=#f8cecc;strokeColor=#b85450;" parent="I_56bxetgjxXbQlA3_zJ-5" vertex="1">
          <mxGeometry x="80" y="690" width="130" height="50" as="geometry" />
        </mxCell>
        <mxCell id="I_56bxetgjxXbQlA3_zJ-16" value="Access Personal Trainer" style="ellipse;whiteSpace=wrap;html=1;fillColor=#dae8fc;strokeColor=#6c8ebf;" parent="I_56bxetgjxXbQlA3_zJ-5" vertex="1">
          <mxGeometry x="77.5" y="770" width="130" height="50" as="geometry" />
        </mxCell>
        <mxCell id="I_56bxetgjxXbQlA3_zJ-17" value="Feedback &lt;span class=&quot;hljs-keyword&quot;&gt;and&lt;/span&gt; Reports" style="ellipse;whiteSpace=wrap;html=1;fillColor=#dae8fc;strokeColor=#6c8ebf;" parent="I_56bxetgjxXbQlA3_zJ-5" vertex="1">
          <mxGeometry x="78" y="860" width="130" height="50" as="geometry" />
        </mxCell>
        <mxCell id="I_56bxetgjxXbQlA3_zJ-18" value="Monitor the data privacy 🔏&amp;nbsp;" style="ellipse;whiteSpace=wrap;html=1;fillColor=#dae8fc;strokeColor=#6c8ebf;" parent="I_56bxetgjxXbQlA3_zJ-5" vertex="1">
          <mxGeometry x="77.5" y="940" width="130" height="50" as="geometry" />
        </mxCell>
        <mxCell id="I_56bxetgjxXbQlA3_zJ-32" value="Sync Data &lt;span class=&quot;hljs-keyword&quot;&gt;from&lt;/span&gt; Wearables" style="ellipse;whiteSpace=wrap;html=1;fillColor=#f8cecc;strokeColor=#b85450;" parent="I_56bxetgjxXbQlA3_zJ-5" vertex="1">
          <mxGeometry x="80" y="300" width="130" height="50" as="geometry" />
        </mxCell>
        <mxCell id="I_56bxetgjxXbQlA3_zJ-33" value="Sync Data &lt;span class=&quot;hljs-keyword&quot;&gt;from&lt;/span&gt; Wearables" style="ellipse;whiteSpace=wrap;html=1;fillColor=#e1d5e7;strokeColor=#9673a6;" parent="I_56bxetgjxXbQlA3_zJ-5" vertex="1">
          <mxGeometry x="82.5" y="1020" width="130" height="50" as="geometry" />
        </mxCell>
        <mxCell id="I_56bxetgjxXbQlA3_zJ-40" value="" style="endArrow=none;html=1;rounded=0;exitX=0.986;exitY=0.717;exitDx=0;exitDy=0;exitPerimeter=0;" parent="I_56bxetgjxXbQlA3_zJ-5" source="I_56bxetgjxXbQlA3_zJ-8" edge="1">
          <mxGeometry relative="1" as="geometry">
            <mxPoint x="200" y="100" as="sourcePoint" />
            <mxPoint x="390" y="250" as="targetPoint" />
          </mxGeometry>
        </mxCell>
        <mxCell id="I_56bxetgjxXbQlA3_zJ-41" value="" style="endArrow=none;html=1;rounded=0;exitX=0.959;exitY=0.828;exitDx=0;exitDy=0;exitPerimeter=0;" parent="I_56bxetgjxXbQlA3_zJ-5" edge="1">
          <mxGeometry relative="1" as="geometry">
            <mxPoint x="208" y="181" as="sourcePoint" />
            <mxPoint x="390" y="250" as="targetPoint" />
          </mxGeometry>
        </mxCell>
        <mxCell id="I_56bxetgjxXbQlA3_zJ-42" value="" style="endArrow=none;html=1;rounded=0;exitX=0.959;exitY=0.828;exitDx=0;exitDy=0;exitPerimeter=0;" parent="I_56bxetgjxXbQlA3_zJ-5" edge="1">
          <mxGeometry relative="1" as="geometry">
            <mxPoint x="200" y="240" as="sourcePoint" />
            <mxPoint x="390" y="250" as="targetPoint" />
          </mxGeometry>
        </mxCell>
        <mxCell id="I_56bxetgjxXbQlA3_zJ-34" value="User" style="shape=umlActor;verticalLabelPosition=bottom;verticalAlign=top;html=1;fillColor=#f8cecc;strokeColor=#b85450;" parent="1" vertex="1">
          <mxGeometry x="690" y="170" width="120" height="260" as="geometry" />
        </mxCell>
        <mxCell id="I_56bxetgjxXbQlA3_zJ-35" value="Administrator&amp;nbsp;" style="shape=umlActor;verticalLabelPosition=bottom;verticalAlign=top;html=1;fillColor=#dae8fc;strokeColor=#6c8ebf;" parent="1" vertex="1">
          <mxGeometry x="30" y="750" width="120" height="260" as="geometry" />
        </mxCell>
        <mxCell id="I_56bxetgjxXbQlA3_zJ-36" value="Device&amp;nbsp;" style="shape=umlActor;verticalLabelPosition=bottom;verticalAlign=top;html=1;fillColor=#e1d5e7;strokeColor=#9673a6;" parent="1" vertex="1">
          <mxGeometry x="680" y="800" width="120" height="260" as="geometry" />
        </mxCell>
        <mxCell id="I_56bxetgjxXbQlA3_zJ-39" value="" style="endArrow=none;html=1;rounded=0;exitX=0.959;exitY=0.828;exitDx=0;exitDy=0;exitPerimeter=0;" parent="1" source="I_56bxetgjxXbQlA3_zJ-7" edge="1">
          <mxGeometry relative="1" as="geometry">
            <mxPoint x="460" y="260" as="sourcePoint" />
            <mxPoint x="670" y="260" as="targetPoint" />
          </mxGeometry>
        </mxCell>
        <mxCell id="I_56bxetgjxXbQlA3_zJ-43" value="" style="endArrow=none;html=1;rounded=0;" parent="1" source="I_56bxetgjxXbQlA3_zJ-32" edge="1">
          <mxGeometry relative="1" as="geometry">
            <mxPoint x="490" y="260" as="sourcePoint" />
            <mxPoint x="670" y="260" as="targetPoint" />
          </mxGeometry>
        </mxCell>
        <mxCell id="I_56bxetgjxXbQlA3_zJ-44" value="" style="endArrow=none;html=1;rounded=0;" parent="1" source="I_56bxetgjxXbQlA3_zJ-11" edge="1">
          <mxGeometry relative="1" as="geometry">
            <mxPoint x="486" y="329" as="sourcePoint" />
            <mxPoint x="670" y="260" as="targetPoint" />
          </mxGeometry>
        </mxCell>
        <mxCell id="I_56bxetgjxXbQlA3_zJ-45" value="" style="endArrow=none;html=1;rounded=0;" parent="1" source="I_56bxetgjxXbQlA3_zJ-12" edge="1">
          <mxGeometry relative="1" as="geometry">
            <mxPoint x="471" y="394" as="sourcePoint" />
            <mxPoint x="670" y="260" as="targetPoint" />
          </mxGeometry>
        </mxCell>
        <mxCell id="I_56bxetgjxXbQlA3_zJ-46" value="" style="endArrow=none;html=1;rounded=0;" parent="1" source="I_56bxetgjxXbQlA3_zJ-13" edge="1">
          <mxGeometry relative="1" as="geometry">
            <mxPoint x="463" y="463" as="sourcePoint" />
            <mxPoint x="670" y="260" as="targetPoint" />
          </mxGeometry>
        </mxCell>
        <mxCell id="I_56bxetgjxXbQlA3_zJ-47" value="" style="endArrow=none;html=1;rounded=0;exitX=0.923;exitY=0.444;exitDx=0;exitDy=0;exitPerimeter=0;" parent="1" source="I_56bxetgjxXbQlA3_zJ-14" edge="1">
          <mxGeometry relative="1" as="geometry">
            <mxPoint x="457" y="542" as="sourcePoint" />
            <mxPoint x="670" y="260" as="targetPoint" />
          </mxGeometry>
        </mxCell>
        <mxCell id="I_56bxetgjxXbQlA3_zJ-48" value="" style="endArrow=none;html=1;rounded=0;exitX=0.923;exitY=0.2;exitDx=0;exitDy=0;exitPerimeter=0;" parent="1" source="I_56bxetgjxXbQlA3_zJ-15" edge="1">
          <mxGeometry relative="1" as="geometry">
            <mxPoint x="490" y="650" as="sourcePoint" />
            <mxPoint x="670" y="260" as="targetPoint" />
          </mxGeometry>
        </mxCell>
        <mxCell id="I_56bxetgjxXbQlA3_zJ-50" value="" style="endArrow=none;html=1;rounded=0;entryX=0;entryY=0.5;entryDx=0;entryDy=0;" parent="1" target="I_56bxetgjxXbQlA3_zJ-17" edge="1">
          <mxGeometry relative="1" as="geometry">
            <mxPoint x="160" y="840" as="sourcePoint" />
            <mxPoint x="371" y="827" as="targetPoint" />
          </mxGeometry>
        </mxCell>
        <mxCell id="I_56bxetgjxXbQlA3_zJ-51" value="" style="endArrow=none;html=1;rounded=0;entryX=0.044;entryY=0.322;entryDx=0;entryDy=0;entryPerimeter=0;" parent="1" target="I_56bxetgjxXbQlA3_zJ-18" edge="1">
          <mxGeometry relative="1" as="geometry">
            <mxPoint x="160" y="840" as="sourcePoint" />
            <mxPoint x="368" y="905" as="targetPoint" />
          </mxGeometry>
        </mxCell>
        <mxCell id="I_56bxetgjxXbQlA3_zJ-52" value="" style="endArrow=none;html=1;rounded=0;exitX=1;exitY=0;exitDx=0;exitDy=0;" parent="1" source="I_56bxetgjxXbQlA3_zJ-33" edge="1">
          <mxGeometry relative="1" as="geometry">
            <mxPoint x="490" y="1010" as="sourcePoint" />
            <mxPoint x="670" y="900" as="targetPoint" />
          </mxGeometry>
        </mxCell>
        <mxCell id="I_56bxetgjxXbQlA3_zJ-54" value="" style="endArrow=none;html=1;rounded=0;entryX=0;entryY=0.5;entryDx=0;entryDy=0;" parent="1" target="I_56bxetgjxXbQlA3_zJ-16" edge="1">
          <mxGeometry relative="1" as="geometry">
            <mxPoint x="160" y="840" as="sourcePoint" />
            <mxPoint x="365" y="812" as="targetPoint" />
          </mxGeometry>
        </mxCell>
        <mxCell id="I_56bxetgjxXbQlA3_zJ-53" value="" style="swimlane;startSize=0;fillColor=#0050ef;fontColor=#ffffff;strokeColor=#001DBC;" parent="1" vertex="1">
          <mxGeometry x="280" y="780" width="340" height="320" as="geometry" />
        </mxCell>
      </root>
    </mxGraphModel>
  </diagram>
  <diagram id="Rdw4FS-wPVKZyguwjbSw" name="Page-2">
    <mxGraphModel dx="1222" dy="628" grid="1" gridSize="10" guides="1" tooltips="1" connect="1" arrows="1" fold="1" page="1" pageScale="1" pageWidth="850" pageHeight="1100" math="0" shadow="0">
      <root>
        <mxCell id="0" />
        <mxCell id="1" parent="0" />
      </root>
    </mxGraphModel>
  </diagram>
</mxfile>
